<svg xmlns="http://www.w3.org/2000/svg" viewBox="0 0 48 48" fill="none">
    <path d="M24 44V24" stroke="#438BC4" stroke-width="2.5" stroke-linecap="round"/>
    <path d="M24 24c-2-4-8-6-10-4s-3 6-1 9c-3 0-5 2-5 5s3 6 6 5" stroke="#438BC4" stroke-width="2.5" stroke-linecap="round" fill="none"/>
    <path d="M24 24c2-4 8-6 10-4s3 6 1 9c3 0 5 2 5 5s-3 6-6 5" stroke="#0055A0" stroke-width="2.5" stroke-linecap="round" fill="none"/>
    <path d="M14 20c-1-3 0-7 3-9s7-1 7 2" stroke="#438BC4" stroke-width="2.5" stroke-linecap="round" fill="none"/>
    <path d="M34 20c1-3 0-7-3-9s-7-1-7 2" stroke="#0055A0" stroke-width="2.5" stroke-linecap="round" fill="none"/>
    <circle cx="18" cy="18" r="2" fill="#8CC1E9"/>
    <circle cx="30" cy="18" r="2" fill="#8CC1E9"/>
    <circle cx="14" cy="28" r="1.5" fill="#8CC1E9"/>
    <circle cx="34" cy="28" r="1.5" fill="#8CC1E9"/>
</svg>
